<svg width="18" height="17" viewBox="0 0 18 17" fill="none" xmlns="http://www.w3.org/2000/svg">
<path d="M2.53018 16.776H14.7425C16.1377 16.776 17.2727 15.6736 17.2727 14.3185V2.45742C17.2727 1.10238 16.1377 0 14.7425 0H2.53018C1.13502 0 0 1.10238 0 2.45742V14.3185C0 15.6736 1.13502 16.776 2.53018 16.776ZM1.01207 2.45742C1.01207 1.64442 1.69311 0.982966 2.53018 0.982966H14.7425C15.5796 0.982966 16.2606 1.64442 16.2606 2.45742V14.3185C16.2606 15.1315 15.5796 15.793 14.7425 15.793H2.53018C1.69311 15.793 1.01207 15.1315 1.01207 14.3185V2.45742Z" fill="white"/>
<path d="M8.63635 12.8113C11.1476 12.8113 13.1907 10.827 13.1907 8.38798C13.1907 5.94899 11.1476 3.96463 8.63635 3.96463C6.12515 3.96463 4.08203 5.94899 4.08203 8.38798C4.08203 10.827 6.12515 12.8113 8.63635 12.8113ZM8.63635 4.9476C10.5896 4.9476 12.1786 6.49091 12.1786 8.38798C12.1786 10.2851 10.5896 11.8284 8.63635 11.8284C6.68311 11.8284 5.0941 10.2851 5.0941 8.38798C5.0941 6.49091 6.68311 4.9476 8.63635 4.9476Z" fill="white"/>
<path d="M13.4092 4.70903C14.2363 4.70903 14.9092 4.05547 14.9092 3.25217C14.9092 2.44887 14.2363 1.7953 13.4092 1.7953C12.5821 1.7953 11.9092 2.44887 11.9092 3.25217C11.9092 4.05547 12.5821 4.70903 13.4092 4.70903ZM13.4092 2.76655C13.6848 2.76655 13.9092 2.98444 13.9092 3.25217C13.9092 3.51989 13.6848 3.73779 13.4092 3.73779C13.1335 3.73779 12.9092 3.51989 12.9092 3.25217C12.9092 2.98444 13.1335 2.76655 13.4092 2.76655Z" fill="white"/>
</svg>
